<svg version="1" xmlns="http://www.w3.org/2000/svg" width="2310.667" height="2310.667" viewBox="0 0 1733.000000 1733.000000"><path d="M470.5 72.6c-20.1 4.2-35.2 13.8-47.1 29.8l-2.8 3.9 3.4-.9c1.9-.5 7.3-.9 12-.9 7.4.1 9.4.5 15 3.2 3.6 1.7 8.5 5 10.8 7.4 4.4 4.4 11.2 14.9 11.2 17.3 0 .7.3 1.6.7 2 1 1 3 9.1 3.9 15.6l.7 5.5-2.9-3.5c-6.4-7.7-8.1-9.4-13-13.1-7.2-5.3-13.9-7.3-22.2-6.6-8 .7-15.3 3.3-21.5 7.6-2.5 1.7-5.2 3.1-5.9 3.1-.7.1 1.1 1.2 3.9 2.6 3 1.4 6.8 4.4 8.7 6.7 3.2 4 9.1 14.6 8.4 15.2-.2.2-5.9 2.5-12.8 5.3-38.8 15.4-73.5 37.2-104.9 66-15.3 14.1-29.9 29.7-39.9 42.7-2.6 3.3-5.4 6.9-6.4 7.9-1 1.1-1.8 2.3-1.8 2.7 0 .4-.6 1.4-1.4 2.2-.8.7-5 6.7-9.3 13.3-13.6 20.3-25.1 41.6-33.9 62.4-2.5 5.8-4.9 11.4-5.4 12.5-4.9 10.7-16.4 49.6-19.5 66-2.2 11.6-5.4 31-6 36-.3 3.3-.8 6.9-1 8-.2 1.1-.4 2.7-.4 3.6-.2 2.9-11.1 13.8-19.5 19.4-4.6 3-8.6 5.5-8.9 5.5-.3 0-3.4 1.3-6.9 2.9-3.5 1.6-9.2 3.8-12.8 4.9-5.8 1.8-8.7 2.3-19.3 3.7-1.6.3-7.9.7-14 1-21.6 1-36.2 2.1-41.2 3.1-18.3 3.5-29.4 8.4-41.5 18.5-11.8 9.8-18.6 20.5-22.8 35.9C.9 602.8.8 603.8.6 616.5c-.3 18.7 4.2 32.9 15.5 49.9 6.4 9.5 23.3 25.4 36.1 34 10.7 7.1 31.2 18 47.8 25.5 4.1 1.9 9.3 4.2 11.5 5.2 8.4 3.8 21 8.9 22 8.9.5 0 2.2.6 3.6 1.4 4.6 2.3 39.5 13.6 46.9 15.1.8.2 5.3 1.3 10 2.4 10.5 2.6 11 2.7 24 4.7 10.4 1.5 32.6 2.1 38.6 1 2.9-.5 3.4-.2 7 5.2 2.1 3.1 4.1 5.9 4.4 6.2.3.3 4 4.8 8.3 10 23 28.5 47.7 51.1 77.2 70.7 17.1 11.4 40.7 24.3 48.8 26.9 1.2.4 4.5 1.7 7.2 3 13.2 5.9 39.5 14.1 55.4 17 5.2 1 5.2 1.6-1.6 10.4-23.7 30.9-50.7 78.2-64.5 113-1.7 4.1-3.6 8.8-4.3 10.5-1.4 3.2-5.5 14.3-6 16-.1.5-.5 1.9-.9 3-1.9 4.9-7.5 23.2-8.1 26.2-.1 1-1 4.5-1.9 7.8-1.6 5.8-1.9 6.9-3.1 12.5-1.4 6.3-4.5 22.4-5 26.2-.3 2.4-.8 5.4-1 6.8-.2 1.4-.7 4.7-.9 7.5-.3 2.7-.8 7.3-1.1 10.2-1.2 10.1-1.5 20.1-1.4 40.3.1 30.6.9 42.4 5 69 3.2 21.3 8.4 43.1 15.6 65.5 3.4 10.5 8.9 25.6 11.8 32 .8 1.6 3.5 7.7 6 13.5 2.6 5.8 6.2 13.2 8 16.5 1.8 3.3 4.9 9.1 7 13 2.1 3.8 4.4 7.7 5.1 8.6.8.8 1.4 1.8 1.4 2.1 0 1.8 13.9 22.5 25 37.3 8 10.6 8.6 11.3 19.4 23.9 8.2 9.6 34.8 36.2 42.6 42.6 3 2.5 7.3 6.1 9.5 8.1 26.5 23.4 74.1 53.1 116 72.4 11.4 5.2 28.7 12.6 30.5 13 .8.2 3.7 1.3 6.5 2.5 5.6 2.4 39.4 13.8 50 16.9 29.7 8.6 80 19.2 102.5 21.6 3 .3 6.6.8 8 1 4.9.9 8.6 1.4 15 2 3.6.3 8.1.8 10 1 6.1.7 18.3 1.8 23.5 2 2.8.2 11.1.7 18.5 1.1 17.2 1.1 98.8 1.1 118.5 0 21.3-1.1 24.9-1.3 35-2.1 9-.7 12.6-1 22-2 2.8-.3 7.3-.7 10-1 7.9-.8 15.8-1.6 18.5-2 1.4-.2 5.2-.7 8.5-1.1 3.3-.3 6.9-.8 8-1 1.1-.3 4-.7 6.5-1 2.5-.3 5.2-.7 6-.9.8-.2 3.5-.7 6-1 5.7-.8 6.6-.9 23-3.9 56.3-10.3 108.6-25.5 160.5-46.6 19.7-8 51.3-23.5 71.4-35 28.6-16.4 64.5-40.8 80.1-54.4 2-1.7 5.6-4.7 8-6.6 2.5-1.9 6.3-5.1 8.5-7.1 2.2-1.9 5.8-5.1 8-7 6.2-5.3 36.2-35.5 44.2-44.4 42.2-47 82.8-109.9 108.5-168 1.5-3.3 4.4-9.6 6.4-14 2.1-4.4 3.9-8.2 3.9-8.5.1-.3 1.1-2.5 2.2-5 9.1-20 20.2-47.1 26.3-64.7 3.6-9.9 13-39 13.5-41.3.2-.8 1.7-6.2 3.3-12 3.3-11.3 9.5-36.1 10.8-43 .8-4.9 1.7-9.5 2-10.5.4-1.5 4.3-24.3 4.9-29 .3-2.2.8-5.1 1-6.5.2-1.4.7-4.3.9-6.5 1.2-10.2 1.9-16.2 2.1-19 .1-1.7.6-7.7 1.1-13.5 1.6-20.6.9-70.4-1.1-84.5-.2-1.7-.7-5.3-1.1-8-1-8.2-1.2-9.6-2.8-18.5-2.7-15-4.2-21.4-7.3-31.5-8.6-28-19.7-49-32.6-61.8-8.2-8.2-9.8-9.4-17.6-13.1-5.9-2.8-7.5-3.1-15.6-3-7.2 0-10.1.5-14.5 2.4-9.5 4.2-16.6 9.8-25 20-2.5 3-4.9 6-5.5 6.7-1.4 1.7-2.5 3.1-6.5 8.3-9.5 12.5-23.2 28-35.3 40-32.9 33-65.4 53.1-100.1 62-13.4 3.4-23.3 4.5-41.6 4.4-16.4 0-28.2-1.3-43.5-4.8-11.9-2.6-31.3-8.4-41.5-12.3-11.7-4.5-32.4-13.1-35.5-14.7-1.6-.9-3.3-1.6-3.7-1.6-.9 0-51.4-25.1-61-30.3-3.5-1.9-12.1-6.5-19.3-10.2-22.7-11.9-31.8-16.6-40-21-12.8-6.9-72.2-36.7-82-41.2-20.4-9.4-25.5-11.7-35.5-16-5.8-2.5-11.8-5.1-13.5-5.8-4.2-1.9-18.2-7.5-23-9.2-2.2-.8-5.3-2.1-7-2.8-8.9-4-48.2-17.5-68-23.4-11.4-3.4-33.3-8.9-42-10.6-11.3-2.2-25.8-4.6-30.5-5-3-.3-6.6-.8-8-1-5.5-1-23.9-2.3-34.2-2.4l-4.7-.1 3.4-7.3c6.5-14.3 8.3-18.3 11.5-26.7 1.7-4.7 3.6-9.4 4-10.5 4.9-11.9 15-49.3 17.5-64.5.3-1.9 1-6 1.5-9 1.7-10.3 2-12.5 2.6-18.5.3-3.3.7-7.1.9-8.5 2.3-13.5 2.3-69.3.1-83-.3-1.4-.7-5.2-1.1-8.5-.7-6.9-2.9-20.6-5-31.5-.9-4.1-1.7-8.5-2-9.7-.9-5.1-6.9-26.6-10.2-36.8-14.8-46.1-40.7-92.8-71.6-129-14.4-16.9-36.6-38.4-50.7-48.9-3-2.2-6.1-4.6-6.7-5.3-6.3-5.8-52.2-33.3-55.8-33.3-.6 0-1.5-.4-2.1-.9-2.4-2.4-40.6-16.6-49.9-18.6-1.1-.2-5.6-1.3-10-2.4-13.3-3.2-27.8-5.7-39.6-6.7l-7.6-.7-2.3-9.1c-2.2-8.6-7.3-21.1-11.6-28.4-2.8-4.9-12.6-17.2-16.5-20.7-10.8-9.8-27-18.3-38.4-20.1-4.3-.7-19.6-1.2-22-.8z"/></svg>